<?xml version="1.0" encoding="UTF-8"?>
<svg xmlns="http://www.w3.org/2000/svg" viewBox="0 0 824.67 500">
  <defs>
    <style>
      .cls-1 {
        fill: #bcbec0;
      }

      .cls-2 {
        font-size: 14.4px;
        letter-spacing: .22em;
      }

      .cls-2, .cls-3, .cls-4, .cls-5, .cls-6 {
        fill: #2a2b2b;
      }

      .cls-2, .cls-5 {
        font-family: Gilroy-Light, 'XJCFS C+ Gilroy';
        font-weight: 300;
      }

      .cls-3 {
        font-family: Gilroy-ExtraBold, 'XJCFS C+ Gilroy';
        font-size: 28.11px;
        font-weight: 700;
      }

      .cls-7 {
        font-size: 51.78px;
      }

      .cls-7, .cls-8 {
        fill: #fff;
      }

      .cls-7, .cls-6 {
        font-family: BebasNeueBold, 'Bebas Neue';
      }

      .cls-9 {
        fill: #f1f2f2;
      }

      .cls-5 {
        font-size: 10.34px;
        letter-spacing: .22em;
      }

      .cls-6 {
        font-size: 57.08px;
      }

      .cls-10 {
        fill: #a7a9ac;
      }
    </style>
  </defs>
  <g id="BACKGROUND">
    <rect class="cls-9" x="324.67" width="500" height="500"/>
  </g>
  <g id="OBJECTS">
    <g>
      <g>
        <path class="cls-4" d="M523.72,134.94l-41.26,28.03h-76.14s-8.83-.25-8.83-8.83,7.22-9.83,7.22-9.83h79.87l48.33-32.59c.61-.41.97-1.1.96-1.83h0c-.02-1.19-.99-2.15-2.18-2.15h-78.47l-55.24,31.97s-7.84,3.98-7.84,14.93,9.7,15.92,14.18,15.92,79.99.12,79.99.12l49.17-33.72c.45-.31.72-.82.71-1.37h0c-.01-.89-.74-1.61-1.63-1.61h-5.73c-1.11,0-2.2.33-3.12.96Z"/>
        <polygon class="cls-8" points="410.55 139.81 455.76 112.6 518.36 112.6 514.35 114.68 456.21 114.68 414.72 139.81 410.55 139.81"/>
        <path class="cls-8" d="M450.59,126.83c-.32,0-.59-.26-.59-.59v-9.02c0-1.9-1.54-3.44-3.44-3.44s-3.44,1.54-3.44,3.44v.15c0,.32-.26.59-.59.59s-.59-.26-.59-.59v-.15c0-2.54,2.07-4.61,4.61-4.61s4.61,2.07,4.61,4.61v9.02c0,.32-.26.59-.59.59Z"/>
        <path class="cls-8" d="M455.79,123.27c-.32,0-.59-.26-.59-.59v-9.02c0-1.9-1.54-3.44-3.44-3.44s-3.39,1.33-3.39,3.16c0,.32-.26.59-.59.59s-.59-.26-.59-.59c0-2.47,1.96-4.33,4.56-4.33s4.61,2.07,4.61,4.61v9.02c0,.32-.26.59-.59.59Z"/>
        <path class="cls-8" d="M450.69,121.13c-.19,0-.38-.09-.49-.27-.18-.27-.1-.63.17-.81l4.99-3.26c.27-.18.63-.1.81.17.18.27.1.63-.17.81l-4.99,3.26c-.1.06-.21.1-.32.1Z"/>
        <path class="cls-8" d="M450.69,123.88c-.19,0-.38-.09-.49-.27-.18-.27-.1-.63.17-.81l4.99-3.26c.27-.18.63-.1.81.17.18.27.1.63-.17.81l-4.99,3.26c-.1.06-.21.1-.32.1Z"/>
        <text class="cls-3" transform="translate(387.05 199.59)"><tspan x="0" y="0">POOLBOOK</tspan></text>
      </g>
      <text class="cls-2" transform="translate(397.99 216.67)"><tspan x="0" y="0">TAGLINE HERE</tspan></text>
    </g>
    <g>
      <g>
        <path class="cls-8" d="M73.41,69.76v69.45c0,7.7-4.66,14.87-11.95,17.34-2.55.86-5.46,1.18-8.72.51-10.47-2.15-38.28-9.5-48.71-12.28-2.38-.64-4.03-2.79-4.03-5.26v-72.01c0-2.12,1.99-3.67,4.05-3.15l46.39,11.67c3.98,1,8.19.35,11.68-1.81l1.85-1.14c1.44-.89,1.08-3.09-.57-3.47l-44.74-10.39c-1.86-.43-2.8-2.51-1.9-4.19h0c.63-1.18,1.98-1.78,3.27-1.45l50.79,12.86c1.53.39,2.6,1.76,2.6,3.34Z"/>
        <g>
          <polygon points="12.88 96.43 19.38 97.99 19.43 89.79 12.94 88.22 12.88 96.43"/>
          <polygon points="10.5 95.85 10.56 87.65 4.06 86.08 4.01 94.29 10.5 95.85"/>
          <polygon points="10.49 98.09 3.99 96.53 3.94 104.73 10.43 106.3 10.49 98.09"/>
          <polygon points="12.87 98.67 12.81 106.87 19.31 108.43 19.36 100.23 12.87 98.67"/>
        </g>
        <g>
          <polygon points="43.88 102.8 50.38 104.37 50.43 96.16 43.94 94.6 43.88 102.8"/>
          <polygon points="41.5 102.23 41.56 94.02 35.06 92.46 35.01 100.66 41.5 102.23"/>
          <polygon points="41.49 104.47 34.99 102.9 34.94 111.11 41.43 112.67 41.49 104.47"/>
          <polygon points="43.87 105.04 43.81 113.24 50.31 114.81 50.36 106.6 43.87 105.04"/>
        </g>
        <g>
          <polygon class="cls-8" points="22.15 148.95 7.96 155.66 8.06 150.69 22.35 134.5 22.15 148.95"/>
          <polygon class="cls-8" points="21.71 159.5 7.96 155.66 7.99 154.1 21.77 157.67 21.71 159.5"/>
          <polygon points="7.99 154.1 10.07 153.1 24.22 156.63 21.77 157.67 7.99 154.1"/>
          <polygon class="cls-8" points="23.86 156.75 10.06 153.09 10.07 151.52 23.9 154.91 23.86 156.75"/>
          <polygon points="10.07 151.52 12.14 150.5 26.34 153.84 23.9 154.91 10.07 151.52"/>
          <polygon class="cls-8" points="25.98 153.83 12.09 150.54 12.06 148.98 25.98 152 25.98 153.83"/>
          <polygon points="12.06 148.98 14.1 147.9 28.38 150.87 25.98 152 12.06 148.98"/>
          <polygon class="cls-8" points="28.1 150.83 14.13 147.91 14.05 146.35 28.05 149 28.1 150.83"/>
          <polygon points="14.05 146.35 16.07 145.22 30.42 147.8 28.05 149 14.05 146.35"/>
          <polygon class="cls-8" points="30.13 147.95 16.11 145.22 16.02 143.66 30.05 146.11 30.13 147.95"/>
          <polygon points="16.02 143.66 18.02 142.5 32.4 144.89 30.05 146.11 16.02 143.66"/>
          <polygon class="cls-8" points="32.04 145.2 18.03 142.47 17.94 140.91 31.96 143.37 32.04 145.2"/>
          <polygon points="17.94 140.91 19.93 139.75 34.32 142.14 31.96 143.37 17.94 140.91"/>
          <polygon points="33.31 142.9 19.93 139.75 19.95 116.12 33.32 119.27 33.31 142.9"/>
          <polygon class="cls-8" points="35.9 152.79 21.71 159.5 21.81 154.53 36.1 138.35 35.9 152.79"/>
        </g>
      </g>
      <text class="cls-7" transform="translate(79.24 103.15)"><tspan x="0" y="0">HOME</tspan></text>
      <text class="cls-7" transform="translate(79.24 146.97)"><tspan x="0" y="0">BOOK</tspan></text>
    </g>
    <g>
      <g>
        <rect class="cls-10" x="385.89" y="348.06" width="48.4" height="35.09"/>
        <path class="cls-4" d="M442.18,300.18v82.97h-18.97v-32.95h-26.08v32.95h-18.97v-82.97h18.97v31.77h26.08v-31.77h18.97Z"/>
        <path class="cls-8" d="M397.14,350.2h6.77l17.16,3.06v32.66s-1.16,2.15-3.37,2.7l-20.56-38.42Z"/>
        <polygon class="cls-4" points="397.11 350.2 417.67 354.86 417.67 388.63 397.11 383.15 397.11 350.2"/>
        <polygon class="cls-4" points="416.08 392.2 414.51 391.45 412.97 392.2 412.97 386.45 416.08 386.45 416.08 392.2"/>
      </g>
      <text class="cls-6" transform="translate(450.03 340.05)"><tspan x="0" y="0">HOME</tspan></text>
      <text class="cls-6" transform="translate(450.03 382.86)"><tspan x="0" y="0">BOOK</tspan></text>
    </g>
    <g>
      <g>
        <path class="cls-4" d="M645.38,333.86c34.14,1.53,43.82,24.97,43.82,24.97,0,0,9.68-23.44,43.82-24.97l-.84,17.44c3.52-6.72,5.52-14.36,5.52-22.47,0-26.79-21.71-48.5-48.5-48.5s-48.5,21.71-48.5,48.5c0,8.11,2,15.75,5.52,22.47l-.84-17.44Z"/>
        <path class="cls-1" d="M689.2,358.83s8.63-20.87,38.3-24.5l-.84-9.89c-37.71,13.5-37.46,34.39-37.46,34.39Z"/>
        <path class="cls-1" d="M651.72,324.36l-.85,9.96c28.66,3.5,37.71,23.07,38.3,24.43,0,0,0,0,0,0,0,0,.25-20.89-37.46-34.39Z"/>
        <path class="cls-8" d="M689.79,349.27s4.13-17.93,32.69-25.71c0,0-26.03-1.27-32.69,25.71Z"/>
        <path class="cls-8" d="M688.52,348.96s-.96-22.75-28.87-37.3l.62,6.16s18.06,6.19,28.25,31.14Z"/>
      </g>
      <text class="cls-3" transform="translate(608.33 384.84)"><tspan x="0" y="0">BOOKSTORE</tspan></text>
      <text class="cls-5" transform="translate(642.13 401.12)"><tspan x="0" y="0">TAGLINE HERE</tspan></text>
    </g>
  </g>
</svg>