<?xml version="1.0" encoding="UTF-8"?>
<svg id="OBJECTS" xmlns="http://www.w3.org/2000/svg" viewBox="0 0 167.46 108.26">
  <defs>
    <style>
      .cls-1 {
        font-family: BebasNeueBold, 'Bebas Neue';
        font-size: 51.78px;
      }

      .cls-1, .cls-2 {
        fill: #fff;
      }
    </style>
  </defs>
  <g>
    <path class="cls-2" d="M73.41,18.52v69.45c0,7.7-4.66,14.87-11.95,17.34-2.55.86-5.46,1.18-8.72.51-10.47-2.15-38.28-9.5-48.71-12.28-2.38-.64-4.03-2.79-4.03-5.26V16.27c0-2.12,1.99-3.67,4.05-3.15l46.39,11.67c3.98,1,8.19.35,11.68-1.81l1.85-1.14c1.44-.89,1.08-3.09-.57-3.47L18.65,7.96c-1.86-.43-2.8-2.51-1.91-4.19h0c.63-1.18,1.98-1.78,3.27-1.45l50.79,12.86c1.53.39,2.6,1.76,2.6,3.34Z"/>
    <g>
      <polygon points="12.88 45.19 19.38 46.75 19.43 38.55 12.94 36.98 12.88 45.19"/>
      <polygon points="10.5 44.61 10.56 36.41 4.06 34.85 4.01 43.05 10.5 44.61"/>
      <polygon points="10.49 46.85 3.99 45.29 3.94 53.49 10.43 55.06 10.49 46.85"/>
      <polygon points="12.87 47.43 12.81 55.63 19.31 57.2 19.36 48.99 12.87 47.43"/>
    </g>
    <g>
      <polygon points="43.88 51.56 50.38 53.13 50.43 44.92 43.94 43.36 43.88 51.56"/>
      <polygon points="41.5 50.99 41.56 42.79 35.06 41.22 35.01 49.43 41.5 50.99"/>
      <polygon points="41.49 53.23 34.99 51.66 34.94 59.87 41.43 61.43 41.49 53.23"/>
      <polygon points="43.87 53.8 43.81 62.01 50.31 63.57 50.36 55.37 43.87 53.8"/>
    </g>
    <g>
      <polygon class="cls-2" points="22.15 97.71 7.96 104.42 8.06 99.45 22.35 83.27 22.15 97.71"/>
      <polygon class="cls-2" points="21.71 108.26 7.96 104.42 7.99 102.86 21.77 106.43 21.71 108.26"/>
      <polygon points="7.99 102.86 10.07 101.86 24.22 105.39 21.77 106.43 7.99 102.86"/>
      <polygon class="cls-2" points="23.86 105.51 10.06 101.85 10.07 100.29 23.9 103.67 23.86 105.51"/>
      <polygon points="10.07 100.29 12.14 99.26 26.34 102.61 23.9 103.67 10.07 100.29"/>
      <polygon class="cls-2" points="25.98 102.6 12.09 99.3 12.06 97.74 25.98 100.76 25.98 102.6"/>
      <polygon points="12.06 97.74 14.1 96.66 28.38 99.63 25.98 100.76 12.06 97.74"/>
      <polygon class="cls-2" points="28.1 99.59 14.13 96.67 14.05 95.11 28.05 97.76 28.1 99.59"/>
      <polygon points="14.05 95.11 16.07 93.98 30.42 96.56 28.05 97.76 14.05 95.11"/>
      <polygon class="cls-2" points="30.13 96.71 16.11 93.98 16.02 92.42 30.05 94.88 30.13 96.71"/>
      <polygon points="16.02 92.42 18.02 91.26 32.4 93.65 30.05 94.88 16.02 92.42"/>
      <polygon class="cls-2" points="32.04 93.96 18.03 91.23 17.94 89.67 31.96 92.13 32.04 93.96"/>
      <polygon points="17.94 89.67 19.93 88.51 34.32 90.9 31.96 92.13 17.94 89.67"/>
      <polygon points="33.31 91.66 19.93 88.52 19.95 64.88 33.32 68.03 33.31 91.66"/>
      <polygon class="cls-2" points="35.9 101.55 21.71 108.26 21.81 103.29 36.1 87.11 35.9 101.55"/>
    </g>
  </g>
  <text class="cls-1" transform="translate(79.24 51.91)"><tspan x="0" y="0">HOME</tspan></text>
  <text class="cls-1" transform="translate(79.24 95.74)"><tspan x="0" y="0">BOOK</tspan></text>
</svg>